<svg version="1.1" id="图层_1" xmlns="http://www.w3.org/2000/svg" x="0" y="0" viewBox="0 0 102.1 102.1" style="enable-background:new 0 0 102.1 102.1" xml:space="preserve"><style>.st2{fill:#0198f1}</style><path id="XMLID_17_" d="M94.7 102.1H7.4c-4.1 0-7.4-3.3-7.4-7.4V7.4C0 3.3 3.3 0 7.4 0h87.2c4.1 0 7.4 3.3 7.4 7.4v87.2c.1 4.2-3.2 7.5-7.3 7.5z" style="fill:none"/><linearGradient id="SVGID_1_" gradientUnits="userSpaceOnUse" x1="25.404" y1="1152.681" x2="62.803" y2="1181.809" gradientTransform="translate(0 -1146)"><stop offset="0" style="stop-color:#0198f1"/><stop offset=".4" style="stop-color:#0198f1;stop-opacity:.95"/><stop offset="1" style="stop-color:#0198f1;stop-opacity:.4"/></linearGradient><path d="M51.6 11.3c-13.4 0-25.3 6.7-32.5 17C46.9 4.1 68.3 42.9 68.3 42.9l18.3-10.6c-6.5-12.6-19.7-21-35-21z" style="fill:url(#SVGID_1_)"/><circle class="st2" cx="77.3" cy="37.4" r="10.6"/><path class="st2" d="M68.4 60.8c-6.8 9.5-26.5 32.5-49.3 12.9 7.2 10.2 19.1 17 32.5 17 14.6 0 27.4-8 34.2-19.7L68.4 60.8z"/><linearGradient id="SVGID_2_" gradientUnits="userSpaceOnUse" x1="30.2" y1="1165.972" x2="30.2" y2="1229.738" gradientTransform="translate(0 -1146)"><stop offset="0" style="stop-color:#0198f1;stop-opacity:.2"/><stop offset="1" style="stop-color:#0198f1;stop-opacity:.7"/></linearGradient><path d="M47.6 79.3C41.2 75.9 31 67.8 31 51.5c0-14 7.8-24.8 17.5-28.6-8.1-3.9-18.3-4.4-29.4 5.2-4.6 6.4-7.2 14.2-7.2 22.7s2.7 16.3 7.2 22.8c10.4 9.1 20.2 9.1 28.5 5.7z" style="fill:url(#SVGID_2_)"/></svg>